HIERARCHY
ROOT Hips
{
	OFFSET	0.00	0.00	0.00
	CHANNELS 6 Xposition Yposition Zposition Zrotation Xrotation Yrotation
	JOINT Chest
	{
		OFFSET	 0.000000	 4.570000	 0.000000
		CHANNELS 3 Zrotation Xrotation Yrotation
		JOINT Neck
		{
			OFFSET	 0.000000	 17.620001	 0.000000
			CHANNELS 3 Zrotation Xrotation Yrotation
			JOINT Head
			{
				OFFSET	 0.000000	 5.190000	 0.000000
				CHANNELS 3 Zrotation Xrotation Yrotation
				End Site 
				{
					OFFSET	 0.000000	 4.140008	 0.000000
				}
			}
		}
		JOINT LeftCollar
		{
			OFFSET	 1.060000	 15.330000	 01.760000
			CHANNELS 3 Zrotation Xrotation Yrotation
			JOINT LeftShoulder
			{
				OFFSET	 5.00000	 0.000000	 0.000000
				CHANNELS 3 Zrotation Xrotation Yrotation
				JOINT LeftElbow
				{
					OFFSET	 0.000000	-11.90000	 0.000000
					CHANNELS 3 Zrotation Xrotation Yrotation
					JOINT LeftWrist
					{
						OFFSET	 0.000000	-9.520000	 0.000000
						CHANNELS 3 Zrotation Xrotation Yrotation
						End Site 
						{
							OFFSET	 0.000000	-7.0	 0.000000
						}
					}
				}
			}
		}
		JOINT RightCollar
		{
			OFFSET	-1.060000	 15.330000	 01.760000
			CHANNELS 3 Zrotation Xrotation Yrotation
			JOINT RightShoulder
			{
				OFFSET	-5.000000	 0.000000	 0.000000
				CHANNELS 3 Zrotation Xrotation Yrotation
				JOINT RightElbow
				{
					OFFSET	 0.000000	-11.900000	 0.000000
					CHANNELS 3 Zrotation Xrotation Yrotation
					JOINT RightWrist
					{
						OFFSET	 0.000000	-9.520000	 0.000000
						CHANNELS 3 Zrotation Xrotation Yrotation
						End Site 
						{
							OFFSET	 0.000000	-7.0	 0.000000
						}
					}
				}
			}
		}
	}
	JOINT LeftHip
	{
		OFFSET	 3.430000	 0.000000	 0.000000
		CHANNELS 3 Zrotation Xrotation Yrotation
		JOINT LeftKnee
		{
			OFFSET	 0.000000	-19.0	 0.000000
			CHANNELS 3 Zrotation Xrotation Yrotation
			JOINT LeftAnkle
			{
				OFFSET	 0.000000	-15.00000	 0.000000
				CHANNELS 3 Zrotation Xrotation Yrotation
				End Site 
				{
					OFFSET	 0.000000	-3.0	 0.000000
				}
			}
		}
	}
	JOINT RightHip
	{
		OFFSET	-3.430000	 0.000000	 0.000000
		CHANNELS 3 Zrotation Xrotation Yrotation
		JOINT RightKnee
		{
			OFFSET	 0.000000	-19.0	 0.000000
			CHANNELS 3 Zrotation Xrotation Yrotation
			JOINT RightAnkle
			{
				OFFSET	 0.000000	-15.00000	 0.000000
				CHANNELS 3 Zrotation Xrotation Yrotation
				End Site 
				{
					OFFSET	 0.000000	-3.0	 0.000000
				}
			}
		}
	}
}
MOTION
Frames: 16
Frame Time: 0.033333333
-4.453844	34.363662	-5.514122	-358.567136	-357.182137	-23.169446	-2.592179	-3.147581	5.797497	-3.901298	61.456620	2.682403	1.797539	-46.501381	3.587442	-9.397276	22.670751	23.568793	-346.323448	-350.841099	-18.591884	61.726597	-43.632781	29.026493	107.151151	-124.138603	123.431678	-4.493262	24.653480	9.571096	-63.930699	-59.150126	77.020715	-252.938564	-252.970611	125.469028	70.755929	-37.656574	45.677517	18.745667	-8.674571	26.192311	-1.302143	57.650900	1.446642	346.619687	353.679207	-4.989896	344.448151	335.136883	-9.261195	-346.276894	-298.709436	-9.320740	15.488335	-7.003233	2.061213	
-4.410712	33.915555	-5.708674	-359.345777	-355.947485	-22.238283	-0.901021	-3.231658	6.257521	-10.041063	60.290338	7.301627	8.426316	-45.164867	16.844788	-10.714176	22.641680	23.669969	-347.577853	358.663086	-17.341773	68.142664	-37.532862	44.057437	96.041514	-134.141510	113.577601	-5.891048	24.645284	9.396805	-56.960641	-52.518795	83.270987	-243.779280	-243.620465	127.509656	66.056124	-42.127462	42.661934	20.825743	-11.613293	28.055708	-0.221694	61.178952	0.711731	345.337743	354.144943	-5.646293	345.617371	332.938682	-8.812318	-345.562647	-296.886759	-10.092663	15.920207	-8.663433	0.764822	
-4.356037	33.659032	-5.949245	-359.073717	-354.341544	-20.340024	-0.881964	-3.825418	6.261254	-12.443541	57.323427	8.711762	13.532581	-42.395116	27.746902	-9.798873	22.709234	23.286857	-346.817571	347.928515	-16.271718	78.259896	-35.633881	65.981278	93.513982	-146.943648	114.216449	-6.785136	24.683745	8.209632	-51.483933	-44.469598	88.584839	300.374199	-312.891504	-35.096984	72.529463	-50.404800	50.133918	23.879959	-16.730104	31.214633	-357.153751	-294.013790	-1.745689	346.458768	358.378458	-9.958128	345.291625	330.609314	-9.386210	-344.589345	-295.798081	-11.006784	-343.642216	350.194253	-0.890646	
-4.262820	33.704679	-6.145869	-357.680195	-352.460154	-18.479983	-2.276098	-5.090945	5.829977	-13.581640	53.638734	8.926495	16.630957	-39.351335	34.863641	-7.454714	22.865314	22.377084	-341.842079	338.324887	-14.250908	89.901516	-34.265709	83.431667	94.700973	-153.885770	119.572758	-6.896482	24.737440	6.559145	-48.258529	-36.658096	92.449258	302.579312	-335.794220	-15.720769	74.583601	-58.573747	48.497166	27.570502	-22.241488	35.153145	-355.644498	-290.068810	-3.118978	349.497273	-355.464918	-16.147842	343.761444	328.541461	-10.836488	-345.013964	-295.959957	-10.641977	-343.422776	349.901620	-2.536326	
-4.064032	34.053493	-6.199923	-355.882516	-351.128049	-17.042595	-4.134392	-6.235532	5.197707	-14.788455	50.695773	9.185740	17.715685	-37.331989	38.340976	-4.812637	23.020752	21.422596	-332.356340	330.571748	-10.362501	96.688667	-31.791760	91.999401	96.172838	-156.526867	124.655457	-6.511963	24.785407	4.715685	-46.940450	-30.098823	95.034102	305.197378	-359.145516	-2.944274	63.899314	-61.992148	31.826235	30.514282	-25.593256	38.235541	-358.665463	-288.451639	-0.517008	352.122524	-351.229600	-20.304900	341.754707	328.025099	-12.468237	-346.827106	-297.675509	-8.998938	-343.505148	350.397847	-4.118089	
-3.749431	34.590080	-6.103356	-354.599479	-350.251872	-16.100386	-5.300139	-7.254277	4.740876	-15.902743	49.195829	9.586959	17.888203	-36.546787	39.555083	-2.573874	23.128364	20.730013	-321.001369	325.500797	-5.164220	97.883466	-29.283547	94.151546	96.702239	-157.351899	127.037103	-6.012943	24.815484	2.788732	-46.643767	-25.003693	96.800252	-53.537166	-19.750608	13.166225	-325.356298	305.125661	-7.853194	32.223196	-26.599362	39.895380	-2.457916	70.847611	2.787254	353.237047	-350.049562	-20.924105	340.574205	328.880238	-13.228730	-348.973507	-300.682759	-7.049330	-343.652025	351.380739	-5.964930	
-3.329599	35.172141	-5.901660	-353.715215	-349.846405	-15.469521	-6.004305	-7.951262	4.437691	-16.437739	48.567114	9.782592	17.824244	-36.366925	39.703725	-0.963876	23.185932	20.348111	50.116829	-37.544808	0.325674	95.777561	-27.121378	93.671636	96.588496	-157.713831	127.653732	-5.589938	24.824315	1.312407	-46.267499	-20.648744	98.565938	-51.021655	-35.929936	21.953225	37.100839	-54.187998	-5.782407	32.240978	-26.058947	39.800887	-4.485727	68.664785	4.436080	352.831662	-350.117946	-18.767594	339.952275	330.696577	-13.339342	-350.981528	-304.433599	-5.274495	-343.605771	352.905619	-7.918179	
-2.812438	35.655248	-5.644475	-353.179947	-349.664367	-15.067494	-6.227725	-8.358520	4.319187	-16.477925	48.163142	9.714950	17.724597	-36.377993	39.449747	-0.185933	23.280776	19.652409	60.622339	-38.527781	5.729992	92.745681	-24.832463	93.185259	96.542064	-157.699078	127.716720	-5.146134	24.824957	0.268542	-45.093321	-15.795845	101.222390	-46.790664	-44.755356	21.760695	-317.322930	305.717401	2.867817	31.033110	-24.741924	38.495041	-4.902772	65.686569	4.607415	352.174762	-350.178489	-16.672029	339.424957	332.776287	-13.277338	-352.276805	-308.167335	-4.128424	-343.237432	354.657535	-9.639776	
-2.199184	35.921136	-5.378906	-352.907313	-349.762530	-14.981734	-5.847772	-8.354670	4.453817	-17.061008	47.807252	9.991419	17.694511	-36.466748	39.151449	-0.456373	23.336263	19.221907	70.140399	-38.495611	10.657755	88.943739	-22.807143	93.924196	96.720742	-157.673547	127.748713	354.864408	-335.177618	-0.017487	-42.971191	-9.175742	105.597659	-43.360051	-44.862700	12.042739	-312.258864	307.623106	12.303633	29.096229	-22.966657	36.518090	-4.793640	62.574927	4.318159	350.306295	-349.644914	-16.236303	338.644212	334.550825	-13.422853	-353.025639	-310.905312	-3.476309	-342.734402	356.160833	-10.569932	
-1.510944	35.903166	-5.119316	-352.981216	-350.252200	-15.180870	-4.842735	-7.836579	4.849850	-18.342027	47.867935	10.799007	17.474760	-37.024689	38.785897	-1.050272	23.373900	18.914540	77.753014	-38.081879	14.544513	84.946664	-20.794169	95.488508	96.744689	-157.731590	127.423323	354.488721	-335.183519	-0.038206	-40.548947	-1.748948	111.245849	-44.169282	-39.540046	0.929946	-308.673698	308.502260	19.661013	26.769985	-20.763419	34.215627	-4.587264	59.725986	3.970282	348.301307	-349.583907	-16.817155	337.757134	335.734797	-13.751920	-353.811166	-311.955030	-2.937928	-342.296341	356.951140	-10.410308	
-0.746151	35.592140	-4.872370	-353.074407	-351.256648	-15.465576	-3.825426	-6.706917	5.269414	-19.506852	48.576208	11.718403	16.797243	-37.682819	38.211321	-1.187476	23.426631	18.491661	82.698494	-37.842747	17.018430	81.949475	-18.522643	97.303958	97.175646	-157.433356	127.359966	353.973178	-335.194338	-0.281991	-37.946713	4.901975	117.254633	315.181611	328.341063	-12.562087	-305.109378	310.211419	26.422374	23.285067	-17.657014	31.016773	-4.507156	56.045235	3.661275	346.250611	-350.397465	-16.535469	336.375087	336.356263	-14.562427	-355.126305	-311.188191	-2.174027	-341.510241	357.131239	-9.119706	
0.093214	35.052579	-4.654313	-353.310103	-352.237408	-15.760513	-2.681262	-5.518324	5.691404	-19.622155	50.013902	12.179976	15.409449	-38.595363	37.136967	-0.479532	23.555428	17.451758	84.829847	-37.709432	18.068760	80.870920	-16.172492	99.238964	98.255745	-156.827600	128.239995	353.625658	-335.215266	-1.277413	-35.659437	9.708198	122.177164	315.546617	335.534045	-23.422984	-302.823996	311.804657	31.326344	19.331921	-14.357675	27.776019	-4.305089	52.142656	3.251406	345.181031	-354.709308	-14.517696	334.611013	335.988635	-15.948536	-356.745278	-308.862758	-1.205189	-340.045357	357.504713	-7.421823	
0.957691	34.432156	-4.531748	-353.331796	-352.238337	-16.109091	-1.793555	-5.302834	5.972343	-17.618860	51.372969	11.195830	13.469819	-39.035613	35.614043	1.545516	23.761964	15.680338	83.673981	-37.458990	17.498633	82.075212	-14.523301	100.931287	100.580926	-155.733787	130.770593	353.872474	-335.262886	-3.370484	-34.499988	12.156842	124.795749	316.913092	340.316488	-29.983956	-301.597786	312.684221	34.670685	15.658577	-12.631239	25.345853	-3.897456	49.076086	2.783823	345.539998	357.761365	-11.214386	332.097203	333.533865	-18.645043	1.493022	54.975925	0.001534	-338.356415	359.282694	-6.019709	
1.727378	33.941638	-4.563094	-353.430506	-351.109881	-16.810996	-0.880673	-5.961367	6.250192	-14.362093	51.400720	9.044050	11.706347	-39.114617	34.253097	4.422862	23.948459	13.908823	79.694802	-37.020410	15.522832	84.194899	-14.481787	102.050263	102.792876	-154.747849	133.416800	354.521888	-335.349411	-5.908212	-34.637265	12.432233	125.026281	318.024008	343.249699	-32.616676	-301.283433	313.141871	35.552250	13.851391	-13.701520	24.521060	-3.435913	48.877044	2.490469	348.423895	350.092210	-7.683006	329.428019	328.498813	-22.476554	-1.244905	60.347534	2.214842	-338.416576	-356.548077	-5.118306	
2.282898	33.747125	-4.700206	-353.800046	-350.119449	-17.923598	-0.169176	-6.128619	6.480033	-11.400820	49.761813	6.856206	10.592838	-39.137478	33.670875	7.259985	24.046326	12.851208	73.369009	-36.243793	12.337855	86.288291	-16.854634	101.532993	104.009155	-153.644063	134.825335	355.197694	-335.443531	-7.944081	-35.600823	10.996569	123.383676	317.731649	346.032564	-32.648662	-302.076118	313.192141	33.869965	13.874702	-15.420176	24.756059	-3.340146	50.129253	2.505571	350.103548	346.800223	-5.755629	327.100346	322.653756	-26.323009	-5.641401	66.465593	6.236787	-340.814600	-351.461663	-3.481837	
2.592080	33.871689	-4.798905	-354.324905	-350.385525	-19.194894	0.033624	-5.118251	6.537577	-10.168768	47.593153	5.782181	10.405052	-39.090992	34.020222	9.025471	24.027193	12.986124	64.962556	-35.257217	8.047478	87.397227	-22.065395	98.571949	103.595812	-152.092968	133.823292	355.314135	-335.498364	-8.879956	-36.264673	8.528474	120.925900	315.893098	350.673377	-31.693293	-303.334184	312.743999	30.824189	14.021423	-14.689098	24.746070	-3.759859	49.638532	2.736220	350.457652	346.490952	-5.047079	325.206963	318.272299	-29.298731	-11.651157	72.420248	12.214476	-343.627053	-348.168528	-1.667747	
